{
  "accessors": [
    {
      "bufferView": 2,
      "componentType": 5126,
      "count": 13864,
      "max": [
        0.7818930149078369,
        0.9943190217018127,
        0.1592160016298294
      ],
      "min": [
        -0.7818930149078369,
        -0.9825040102005005,
        -0.13629800081253052
      ],
      "type": "VEC3"
    },
    {
      "bufferView": 2,
      "byteOffset": 166368,
      "componentType": 5126,
      "count": 13864,
      "max": [
        0.9999923706054688,
        0.9999778866767883,
        0.9999985098838806
      ],
      "min": [
        -0.9999922513961792,
        -0.9999978542327881,
        -0.9999364614486694
      ],
      "type": "VEC3"
    },
    {
      "bufferView": 3,
      "componentType": 5126,
      "count": 13864,
      "max": [
        0.9999915957450867,
        0.999941885471344,
        0.9999849796295166,
        1.0
      ],
      "min": [
        -0.9999750256538391,
        -0.9999632239341736,
        -0.9999375343322754,
        -1.0
      ],
      "type": "VEC4"
    },
    {
      "bufferView": 1,
      "componentType": 5126,
      "count": 13864,
      "max": [
        0.9875680208206177,
        0.9863290190696716
      ],
      "min": [
        0.0025186201091855764,
        0.012215900234878063
      ],
      "type": "VEC2"
    },
    {
      "bufferView": 0,
      "componentType": 5125,
      "count": 76302,
      "type": "SCALAR"
    },
    {
      "bufferView": 2,
      "byteOffset": 332736,
      "componentType": 5126,
      "count": 1092,
      "max": [
        0.12625199556350708,
        0.9976469874382019,
        0.11986000090837479
      ],
      "min": [
        -0.12625199556350708,
        0.6696680188179016,
        -0.15423400700092316
      ],
      "type": "VEC3"
    },
    {
      "bufferView": 2,
      "byteOffset": 345840,
      "componentType": 5126,
      "count": 1092,
      "max": [
        0.9998852610588074,
        0.9987966418266296,
        0.9997916221618652
      ],
      "min": [
        -0.9998852610588074,
        -0.9999036192893982,
        -0.9997259974479675
      ],
      "type": "VEC3"
    },
    {
      "bufferView": 3,
      "byteOffset": 221824,
      "componentType": 5126,
      "count": 1092,
      "max": [
        0.9971823692321777,
        0.9582559466362,
        0.9979204535484314,
        1.0
      ],
      "min": [
        -0.9971823692321777,
        -0.9997915625572205,
        -0.999903678894043,
        -1.0
      ],
      "type": "VEC4"
    },
    {
      "bufferView": 1,
      "byteOffset": 110912,
      "componentType": 5126,
      "count": 1092,
      "max": [
        0.9531800150871277,
        0.9998949766159058
      ],
      "min": [
        0.0001052189982146956,
        0.0001052189982146956
      ],
      "type": "VEC2"
    },
    {
      "bufferView": 0,
      "byteOffset": 305208,
      "componentType": 5125,
      "count": 5952,
      "type": "SCALAR"
    },
    {
      "bufferView": 2,
      "byteOffset": 358944,
      "componentType": 5126,
      "count": 145,
      "max": [
        0.10671000182628632,
        1.0,
        0.06026750057935715
      ],
      "min": [
        -0.10671000182628632,
        0.8585720062255859,
        -0.017713699489831924
      ],
      "type": "VEC3"
    },
    {
      "bufferView": 2,
      "byteOffset": 360684,
      "componentType": 5126,
      "count": 145,
      "max": [
        1.0,
        0.980155348777771,
        0.8686188459396362
      ],
      "min": [
        -1.0,
        -0.32431212067604065,
        -0.6721252202987671
      ],
      "type": "VEC3"
    },
    {
      "bufferView": 3,
      "byteOffset": 239296,
      "componentType": 5126,
      "count": 145,
      "max": [
        0.6607985496520996,
        0.4429277777671814,
        0.9801458716392517,
        1.0
      ],
      "min": [
        -0.6610193252563477,
        -0.8682419061660767,
        0.495265930891037,
        1.0
      ],
      "type": "VEC4"
    },
    {
      "bufferView": 1,
      "byteOffset": 119648,
      "componentType": 5126,
      "count": 145,
      "max": [
        0.08933410048484802,
        0.9721119999885559
      ],
      "min": [
        0.024476999416947365,
        0.45338401198387146
      ],
      "type": "VEC2"
    },
    {
      "bufferView": 0,
      "byteOffset": 329016,
      "componentType": 5125,
      "count": 672,
      "type": "SCALAR"
    },
    {
      "bufferView": 2,
      "byteOffset": 362424,
      "componentType": 5126,
      "count": 892,
      "max": [
        0.36901000142097473,
        -0.8777419924736023,
        0.14368900656700134
      ],
      "min": [
        -0.36901000142097473,
        -1.0,
        -0.13420699536800385
      ],
      "type": "VEC3"
    },
    {
      "bufferView": 2,
      "byteOffset": 373128,
      "componentType": 5126,
      "count": 892,
      "max": [
        0.9988537430763245,
        0.9660297632217407,
        0.9846493601799011
      ],
      "min": [
        -0.9988537430763245,
        -1.0,
        -0.9920040965080261
      ],
      "type": "VEC3"
    },
    {
      "bufferView": 3,
      "byteOffset": 241616,
      "componentType": 5126,
      "count": 892,
      "max": [
        0.9872897863388062,
        0.9694182872772217,
        0.982716977596283,
        1.0
      ],
      "min": [
        -0.9872897863388062,
        -0.9985426068305969,
        -0.7505976557731628,
        -1.0
      ],
      "type": "VEC4"
    },
    {
      "bufferView": 1,
      "byteOffset": 120808,
      "componentType": 5126,
      "count": 892,
      "max": [
        0.9677379727363586,
        0.9741479754447937
      ],
      "min": [
        0.023250600323081017,
        0.00886186957359314
      ],
      "type": "VEC2"
    },
    {
      "bufferView": 0,
      "byteOffset": 331704,
      "componentType": 5125,
      "count": 3984,
      "type": "SCALAR"
    },
    {
      "bufferView": 2,
      "byteOffset": 383832,
      "componentType": 5126,
      "count": 2424,
      "max": [
        0.30150601267814636,
        0.6617249846458435,
        0.14586900174617767
      ],
      "min": [
        -0.30150601267814636,
        -0.30035200715065,
        -0.1592160016298294
      ],
      "type": "VEC3"
    },
    {
      "bufferView": 2,
      "byteOffset": 412920,
      "componentType": 5126,
      "count": 2424,
      "max": [
        0.9962112307548523,
        0.9975988864898682,
        0.9999963641166687
      ],
      "min": [
        -0.9960235357284546,
        -0.9845424890518188,
        -0.9999895095825195
      ],
      "type": "VEC3"
    },
    {
      "bufferView": 3,
      "byteOffset": 255888,
      "componentType": 5126,
      "count": 2424,
      "max": [
        0.9664592742919922,
        0.9999977350234985,
        0.9985083937644958,
        1.0
      ],
      "min": [
        -0.9664751291275024,
        -0.6033243536949158,
        -0.9536899328231812,
        1.0
      ],
      "type": "VEC4"
    },
    {
      "bufferView": 1,
      "byteOffset": 127944,
      "componentType": 5126,
      "count": 2424,
      "max": [
        0.9043790102005005,
        0.9998300075531006
      ],
      "min": [
        0.00016991299344226718,
        0.00016991299344226718
      ],
      "type": "VEC2"
    },
    {
      "bufferView": 0,
      "byteOffset": 347640,
      "componentType": 5125,
      "count": 13404,
      "type": "SCALAR"
    },
    {
      "bufferView": 2,
      "byteOffset": 442008,
      "componentType": 5126,
      "count": 38,
      "max": [
        -0.5732179880142212,
        0.31699299812316895,
        0.07059550285339355
      ],
      "min": [
        -0.6179540157318115,
        0.2652289867401123,
        0.01278650015592575
      ],
      "type": "VEC3"
    },
    {
      "bufferView": 2,
      "byteOffset": 442464,
      "componentType": 5126,
      "count": 38,
      "max": [
        0.5508991479873657,
        0.8064948916435242,
        0.9478562474250793
      ],
      "min": [
        -0.6742640733718872,
        -0.8821842670440674,
        -0.9100304245948792
      ],
      "type": "VEC3"
    },
    {
      "bufferView": 3,
      "byteOffset": 294672,
      "componentType": 5126,
      "count": 38,
      "max": [
        0.867728054523468,
        0.6121406555175781,
        -0.1307319551706314,
        1.0
      ],
      "min": [
        0.7030166387557983,
        0.4146670401096344,
        -0.5100014209747314,
        1.0
      ],
      "type": "VEC4"
    },
    {
      "bufferView": 1,
      "byteOffset": 147336,
      "componentType": 5126,
      "count": 38,
      "max": [
        0.24316099286079407,
        0.5932480096817017
      ],
      "min": [
        0.18569500744342804,
        0.3090769946575165
      ],
      "type": "VEC2"
    },
    {
      "bufferView": 0,
      "byteOffset": 401256,
      "componentType": 5125,
      "count": 108,
      "type": "SCALAR"
    },
    {
      "bufferView": 2,
      "byteOffset": 442920,
      "componentType": 5126,
      "count": 134,
      "max": [
        -0.011579199694097042,
        0.873553991317749,
        0.08985830098390579
      ],
      "min": [
        -0.06384990364313126,
        0.8257240056991577,
        0.037115100771188736
      ],
      "type": "VEC3"
    },
    {
      "bufferView": 2,
      "byteOffset": 444528,
      "componentType": 5126,
      "count": 134,
      "max": [
        0.9902015328407288,
        0.959701657295227,
        0.9987417459487915
      ],
      "min": [
        -0.9902053475379944,
        -0.9597116708755493,
        -0.9987384676933289
      ],
      "type": "VEC3"
    },
    {
      "bufferView": 3,
      "byteOffset": 295280,
      "componentType": 5126,
      "count": 134,
      "max": [
        0.9271347522735596,
        0.3409937024116516,
        0.9914771914482117,
        1.0
      ],
      "min": [
        -0.9860303401947021,
        -0.9990617036819458,
        -0.9493706226348877,
        1.0
      ],
      "type": "VEC4"
    },
    {
      "bufferView": 1,
      "byteOffset": 147640,
      "componentType": 5126,
      "count": 134,
      "max": [
        0.4841499924659729,
        0.976938009262085
      ],
      "min": [
        0.3322719931602478,
        0.32408198714256287
      ],
      "type": "VEC2"
    },
    {
      "bufferView": 0,
      "byteOffset": 401688,
      "componentType": 5125,
      "count": 564,
      "type": "SCALAR"
    },
    {
      "bufferView": 2,
      "byteOffset": 446136,
      "componentType": 5126,
      "count": 134,
      "max": [
        0.06377209722995758,
        0.87363201379776,
        0.08941639959812164
      ],
      "min": [
        0.012346399948000908,
        0.8256469964981079,
        0.03755690157413483
      ],
      "type": "VEC3"
    },
    {
      "bufferView": 2,
      "byteOffset": 447744,
      "componentType": 5126,
      "count": 134,
      "max": [
        0.9740906357765198,
        0.9615821242332458,
        0.9819809794425964
      ],
      "min": [
        -0.9741048812866211,
        -0.9615901112556458,
        -0.9819822311401367
      ],
      "type": "VEC3"
    },
    {
      "bufferView": 3,
      "byteOffset": 297424,
      "componentType": 5126,
      "count": 134,
      "max": [
        0.9994137287139893,
        0.5460221767425537,
        0.8359256386756897,
        1.0
      ],
      "min": [
        -0.9369457960128784,
        -0.9989184141159058,
        -0.9514910578727722,
        1.0
      ],
      "type": "VEC4"
    },
    {
      "bufferView": 1,
      "byteOffset": 148712,
      "componentType": 5126,
      "count": 134,
      "max": [
        0.401309996843338,
        0.9772779941558838
      ],
      "min": [
        0.14288100600242615,
        0.45965099334716797
      ],
      "type": "VEC2"
    },
    {
      "bufferView": 0,
      "byteOffset": 403944,
      "componentType": 5125,
      "count": 564,
      "type": "SCALAR"
    }
  ],
  "asset": {
    "extras": {
      "author": "karma (https://sketchfab.com/mikejimmyalmeida)",
      "license": "CC-BY-4.0 (http://creativecommons.org/licenses/by/4.0/)",
      "source": "https://sketchfab.com/3d-models/anita-female-character-9fa7d23442aa4c4ebf0795e3a998484a",
      "title": "Anita - Female Character"
    },
    "generator": "Sketchfab-12.68.0",
    "version": "2.0"
  },
  "bufferViews": [
    {
      "buffer": 0,
      "byteLength": 406200,
      "name": "floatBufferViews",
      "target": 34963
    },
    {
      "buffer": 0,
      "byteLength": 149784,
      "byteOffset": 406200,
      "byteStride": 8,
      "name": "floatBufferViews",
      "target": 34962
    },
    {
      "buffer": 0,
      "byteLength": 449352,
      "byteOffset": 555984,
      "byteStride": 12,
      "name": "floatBufferViews",
      "target": 34962
    },
    {
      "buffer": 0,
      "byteLength": 299568,
      "byteOffset": 1005336,
      "byteStride": 16,
      "name": "floatBufferViews",
      "target": 34962
    }
  ],
  "buffers": [
    {
      "byteLength": 1304904,
      "uri": "scene.bin"
    }
  ],
  "images": [
    {
      "uri": "textures/L_Eye_M_baseColor.jpeg"
    },
    {
      "uri": "textures/L_Eye_M_metallicRoughness.png"
    },
    {
      "uri": "textures/L_Eye_M_normal.png"
    },
    {
      "uri": "textures/R_Eye_M_baseColor.jpeg"
    },
    {
      "uri": "textures/R_Eye_M_metallicRoughness.png"
    },
    {
      "uri": "textures/R_Eye_M_normal.png"
    },
    {
      "uri": "textures/Bracelet_M_baseColor.jpeg"
    },
    {
      "uri": "textures/Bracelet_M_metallicRoughness.png"
    },
    {
      "uri": "textures/Bracelet_M_normal.png"
    },
    {
      "uri": "textures/Dress_M_baseColor.jpeg"
    },
    {
      "uri": "textures/Dress_M_metallicRoughness.png"
    },
    {
      "uri": "textures/Dress_M_normal.png"
    },
    {
      "uri": "textures/Shoes_M_baseColor.jpeg"
    },
    {
      "uri": "textures/Shoes_M_metallicRoughness.png"
    },
    {
      "uri": "textures/Shoes_M_normal.png"
    },
    {
      "uri": "textures/HairBand_M_baseColor.jpeg"
    },
    {
      "uri": "textures/HairBand_M_metallicRoughness.png"
    },
    {
      "uri": "textures/HairBand_M_normal.png"
    },
    {
      "uri": "textures/Hair_M_baseColor.jpeg"
    },
    {
      "uri": "textures/Hair_M_metallicRoughness.png"
    },
    {
      "uri": "textures/Hair_M_normal.png"
    },
    {
      "uri": "textures/Body_M_baseColor.jpeg"
    },
    {
      "uri": "textures/Body_M_metallicRoughness.png"
    },
    {
      "uri": "textures/Body_M_normal.png"
    }
  ],
  "materials": [
    {
      "doubleSided": true,
      "name": "L_Eye_M",
      "normalTexture": {
        "index": 2
      },
      "occlusionTexture": {
        "index": 1
      },
      "pbrMetallicRoughness": {
        "baseColorTexture": {
          "index": 0
        },
        "metallicRoughnessTexture": {
          "index": 1
        }
      }
    },
    {
      "doubleSided": true,
      "name": "R_Eye_M",
      "normalTexture": {
        "index": 5
      },
      "occlusionTexture": {
        "index": 4
      },
      "pbrMetallicRoughness": {
        "baseColorTexture": {
          "index": 3
        },
        "metallicRoughnessTexture": {
          "index": 4
        }
      }
    },
    {
      "doubleSided": true,
      "name": "Bracelet_M",
      "normalTexture": {
        "index": 8
      },
      "occlusionTexture": {
        "index": 7
      },
      "pbrMetallicRoughness": {
        "baseColorTexture": {
          "index": 6
        },
        "metallicRoughnessTexture": {
          "index": 7
        }
      }
    },
    {
      "doubleSided": true,
      "name": "Dress_M",
      "normalTexture": {
        "index": 11
      },
      "occlusionTexture": {
        "index": 10
      },
      "pbrMetallicRoughness": {
        "baseColorTexture": {
          "index": 9
        },
        "metallicRoughnessTexture": {
          "index": 10
        }
      }
    },
    {
      "doubleSided": true,
      "name": "Shoes_M",
      "normalTexture": {
        "index": 14
      },
      "occlusionTexture": {
        "index": 13
      },
      "pbrMetallicRoughness": {
        "baseColorTexture": {
          "index": 12
        },
        "metallicRoughnessTexture": {
          "index": 13
        }
      }
    },
    {
      "doubleSided": true,
      "name": "HairBand_M",
      "normalTexture": {
        "index": 17
      },
      "occlusionTexture": {
        "index": 16
      },
      "pbrMetallicRoughness": {
        "baseColorTexture": {
          "index": 15
        },
        "metallicRoughnessTexture": {
          "index": 16
        }
      }
    },
    {
      "doubleSided": true,
      "name": "Hair_M",
      "normalTexture": {
        "index": 20
      },
      "occlusionTexture": {
        "index": 19
      },
      "pbrMetallicRoughness": {
        "baseColorTexture": {
          "index": 18
        },
        "metallicRoughnessTexture": {
          "index": 19
        }
      }
    },
    {
      "doubleSided": true,
      "name": "Body_M",
      "normalTexture": {
        "index": 23
      },
      "occlusionTexture": {
        "index": 22
      },
      "pbrMetallicRoughness": {
        "baseColorTexture": {
          "index": 21
        },
        "metallicRoughnessTexture": {
          "index": 22
        }
      }
    }
  ],
  "meshes": [
    {
      "name": "defaultMaterial",
      "primitives": [
        {
          "attributes": {
            "NORMAL": 1,
            "POSITION": 0,
            "TANGENT": 2,
            "TEXCOORD_0": 3
          },
          "indices": 4,
          "material": 7,
          "mode": 4
        }
      ]
    },
    {
      "name": "defaultMaterial",
      "primitives": [
        {
          "attributes": {
            "NORMAL": 6,
            "POSITION": 5,
            "TANGENT": 7,
            "TEXCOORD_0": 8
          },
          "indices": 9,
          "material": 6,
          "mode": 4
        }
      ]
    },
    {
      "name": "defaultMaterial",
      "primitives": [
        {
          "attributes": {
            "NORMAL": 11,
            "POSITION": 10,
            "TANGENT": 12,
            "TEXCOORD_0": 13
          },
          "indices": 14,
          "material": 5,
          "mode": 4
        }
      ]
    },
    {
      "name": "defaultMaterial",
      "primitives": [
        {
          "attributes": {
            "NORMAL": 16,
            "POSITION": 15,
            "TANGENT": 17,
            "TEXCOORD_0": 18
          },
          "indices": 19,
          "material": 4,
          "mode": 4
        }
      ]
    },
    {
      "name": "defaultMaterial",
      "primitives": [
        {
          "attributes": {
            "NORMAL": 21,
            "POSITION": 20,
            "TANGENT": 22,
            "TEXCOORD_0": 23
          },
          "indices": 24,
          "material": 3,
          "mode": 4
        }
      ]
    },
    {
      "name": "defaultMaterial",
      "primitives": [
        {
          "attributes": {
            "NORMAL": 26,
            "POSITION": 25,
            "TANGENT": 27,
            "TEXCOORD_0": 28
          },
          "indices": 29,
          "material": 2,
          "mode": 4
        }
      ]
    },
    {
      "name": "defaultMaterial",
      "primitives": [
        {
          "attributes": {
            "NORMAL": 31,
            "POSITION": 30,
            "TANGENT": 32,
            "TEXCOORD_0": 33
          },
          "indices": 34,
          "material": 1,
          "mode": 4
        }
      ]
    },
    {
      "name": "defaultMaterial",
      "primitives": [
        {
          "attributes": {
            "NORMAL": 36,
            "POSITION": 35,
            "TANGENT": 37,
            "TEXCOORD_0": 38
          },
          "indices": 39,
          "material": 0,
          "mode": 4
        }
      ]
    }
  ],
  "nodes": [
    {
      "children": [
        1
      ],
      "matrix": [
        1.0,
        0.0,
        0.0,
        0.0,
        0.0,
        2.220446049250313e-16,
        -1.0,
        0.0,
        0.0,
        1.0,
        2.220446049250313e-16,
        0.0,
        0.0,
        0.0,
        0.0,
        1.0
      ],
      "name": "Sketchfab_model"
    },
    {
      "children": [
        2,
        4,
        6,
        8,
        10,
        12,
        14,
        16
      ],
      "matrix": [
        1.0,
        0.0,
        0.0,
        0.0,
        0.0,
        -4.371139006309477e-08,
        0.999999999999999,
        0.0,
        0.0,
        -0.999999999999999,
        -4.371139006309477e-08,
        0.0,
        0.0,
        0.0,
        0.0,
        1.0
      ],
      "name": "Collada visual scene group"
    },
    {
      "children": [
        3
      ],
      "name": "Anita_Body"
    },
    {
      "mesh": 0,
      "name": "defaultMaterial"
    },
    {
      "children": [
        5
      ],
      "name": "Hair"
    },
    {
      "mesh": 1,
      "name": "defaultMaterial"
    },
    {
      "children": [
        7
      ],
      "name": "HairBand"
    },
    {
      "mesh": 2,
      "name": "defaultMaterial"
    },
    {
      "children": [
        9
      ],
      "name": "Anita_Shoes"
    },
    {
      "mesh": 3,
      "name": "defaultMaterial"
    },
    {
      "children": [
        11
      ],
      "name": "Anita_Dress"
    },
    {
      "mesh": 4,
      "name": "defaultMaterial"
    },
    {
      "children": [
        13
      ],
      "name": "Bracelet"
    },
    {
      "mesh": 5,
      "name": "defaultMaterial"
    },
    {
      "children": [
        15
      ],
      "name": "R_Eye"
    },
    {
      "mesh": 6,
      "name": "defaultMaterial"
    },
    {
      "children": [
        17
      ],
      "name": "L_Eye"
    },
    {
      "mesh": 7,
      "name": "defaultMaterial"
    }
  ],
  "samplers": [
    {
      "magFilter": 9729,
      "minFilter": 9987,
      "wrapS": 10497,
      "wrapT": 10497
    }
  ],
  "scene": 0,
  "scenes": [
    {
      "name": "Sketchfab_Scene",
      "nodes": [
        0
      ]
    }
  ],
  "textures": [
    {
      "sampler": 0,
      "source": 0
    },
    {
      "sampler": 0,
      "source": 1
    },
    {
      "sampler": 0,
      "source": 2
    },
    {
      "sampler": 0,
      "source": 3
    },
    {
      "sampler": 0,
      "source": 4
    },
    {
      "sampler": 0,
      "source": 5
    },
    {
      "sampler": 0,
      "source": 6
    },
    {
      "sampler": 0,
      "source": 7
    },
    {
      "sampler": 0,
      "source": 8
    },
    {
      "sampler": 0,
      "source": 9
    },
    {
      "sampler": 0,
      "source": 10
    },
    {
      "sampler": 0,
      "source": 11
    },
    {
      "sampler": 0,
      "source": 12
    },
    {
      "sampler": 0,
      "source": 13
    },
    {
      "sampler": 0,
      "source": 14
    },
    {
      "sampler": 0,
      "source": 15
    },
    {
      "sampler": 0,
      "source": 16
    },
    {
      "sampler": 0,
      "source": 17
    },
    {
      "sampler": 0,
      "source": 18
    },
    {
      "sampler": 0,
      "source": 19
    },
    {
      "sampler": 0,
      "source": 20
    },
    {
      "sampler": 0,
      "source": 21
    },
    {
      "sampler": 0,
      "source": 22
    },
    {
      "sampler": 0,
      "source": 23
    }
  ]
}
